<mxfile host="app.diagrams.net" agent="Mozilla/5.0 (Macintosh; Intel Mac OS X 10_15_7) AppleWebKit/537.36 (KHTML, like Gecko) Chrome/129.0.0.0 Safari/537.36" version="24.7.17">
  <diagram name="Halaman-1" id="T_0_kXugVpVqexapRtx8">
    <mxGraphModel dx="612" dy="375" grid="1" gridSize="10" guides="1" tooltips="1" connect="1" arrows="1" fold="1" page="1" pageScale="1" pageWidth="827" pageHeight="1169" math="0" shadow="0">
      <root>
        <mxCell id="0" />
        <mxCell id="1" parent="0" />
        <mxCell id="17oXxP7lbFP4wxgxd0BL-1" value="&lt;font style=&quot;font-size: 14px;&quot;&gt;Admin&lt;/font&gt;" style="rounded=0;whiteSpace=wrap;html=1;" vertex="1" parent="1">
          <mxGeometry x="60" y="60" width="80" height="30" as="geometry" />
        </mxCell>
        <mxCell id="17oXxP7lbFP4wxgxd0BL-2" value="&lt;font style=&quot;font-size: 14px;&quot;&gt;Teknisi&lt;/font&gt;" style="rounded=0;whiteSpace=wrap;html=1;" vertex="1" parent="1">
          <mxGeometry x="450" y="60" width="80" height="30" as="geometry" />
        </mxCell>
        <mxCell id="17oXxP7lbFP4wxgxd0BL-3" value="Sistem" style="ellipse;whiteSpace=wrap;html=1;" vertex="1" parent="1">
          <mxGeometry x="250" y="50" width="80" height="50" as="geometry" />
        </mxCell>
        <mxCell id="17oXxP7lbFP4wxgxd0BL-4" value="Database" style="ellipse;whiteSpace=wrap;html=1;" vertex="1" parent="1">
          <mxGeometry x="250" y="200" width="80" height="50" as="geometry" />
        </mxCell>
        <mxCell id="17oXxP7lbFP4wxgxd0BL-6" value="" style="endArrow=classic;html=1;rounded=0;" edge="1" parent="1">
          <mxGeometry width="50" height="50" relative="1" as="geometry">
            <mxPoint x="150" y="75" as="sourcePoint" />
            <mxPoint x="240" y="74.86" as="targetPoint" />
            <Array as="points">
              <mxPoint x="180" y="74.86" />
            </Array>
          </mxGeometry>
        </mxCell>
        <mxCell id="17oXxP7lbFP4wxgxd0BL-7" value="&lt;font style=&quot;font-size: 9px;&quot;&gt;Data teknisi, perangkat dan gejala&lt;/font&gt;" style="text;html=1;align=center;verticalAlign=middle;whiteSpace=wrap;rounded=0;" vertex="1" parent="1">
          <mxGeometry x="147" y="40" width="90" height="30" as="geometry" />
        </mxCell>
        <mxCell id="17oXxP7lbFP4wxgxd0BL-8" value="" style="endArrow=none;html=1;rounded=0;startArrow=block;startFill=1;endFill=0;" edge="1" parent="1">
          <mxGeometry width="50" height="50" relative="1" as="geometry">
            <mxPoint x="343" y="74.88" as="sourcePoint" />
            <mxPoint x="433" y="74.74" as="targetPoint" />
            <Array as="points">
              <mxPoint x="373" y="74.74" />
            </Array>
          </mxGeometry>
        </mxCell>
        <mxCell id="17oXxP7lbFP4wxgxd0BL-9" value="&lt;font style=&quot;font-size: 9px;&quot;&gt;Data gejala dan kondisi perangkat&lt;/font&gt;" style="text;html=1;align=center;verticalAlign=middle;whiteSpace=wrap;rounded=0;" vertex="1" parent="1">
          <mxGeometry x="350" y="40" width="90" height="30" as="geometry" />
        </mxCell>
        <mxCell id="17oXxP7lbFP4wxgxd0BL-10" value="" style="endArrow=classic;html=1;rounded=0;" edge="1" parent="1">
          <mxGeometry width="50" height="50" relative="1" as="geometry">
            <mxPoint x="270" y="110" as="sourcePoint" />
            <mxPoint x="270" y="190" as="targetPoint" />
            <Array as="points">
              <mxPoint x="270" y="140" />
            </Array>
          </mxGeometry>
        </mxCell>
        <mxCell id="17oXxP7lbFP4wxgxd0BL-11" value="" style="endArrow=none;html=1;rounded=0;startArrow=classic;startFill=1;endFill=0;" edge="1" parent="1">
          <mxGeometry width="50" height="50" relative="1" as="geometry">
            <mxPoint x="310" y="110" as="sourcePoint" />
            <mxPoint x="310" y="190" as="targetPoint" />
            <Array as="points">
              <mxPoint x="310" y="140" />
            </Array>
          </mxGeometry>
        </mxCell>
        <mxCell id="17oXxP7lbFP4wxgxd0BL-12" value="&lt;font style=&quot;font-size: 9px;&quot;&gt;Data teknisi, perangkat dan gejala&lt;/font&gt;" style="text;html=1;align=center;verticalAlign=middle;whiteSpace=wrap;rounded=0;" vertex="1" parent="1">
          <mxGeometry x="170" y="120" width="90" height="30" as="geometry" />
        </mxCell>
      </root>
    </mxGraphModel>
  </diagram>
</mxfile>
